<svg id="Layer_1" data-name="Layer 1" xmlns="http://www.w3.org/2000/svg" xmlns:xlink="http://www.w3.org/1999/xlink" viewBox="0 0 2160 1080"><defs><style>.cls-1{fill:none;}.cls-2{fill:#92bcb9;}.cls-3{fill:#90cdc9;}.cls-4{opacity:0.2;}.cls-5{fill:#fff;}.cls-6{fill:url(#Motivo_nuevo);}</style><pattern id="Motivo_nuevo" data-name="Motivo nuevo" width="230.94" height="229.35" patternTransform="translate(137.18 60.65)" patternUnits="userSpaceOnUse" viewBox="0 0 230.94 229.35"><rect class="cls-1" width="230.94" height="229.35"/><path class="cls-2" d="M127.15,211.23a96.3,96.3,0,0,0-24.11-.15l-.12-1a97.82,97.82,0,0,1,24.36.16Z"/><path class="cls-2" d="M151.54,205.34a95.88,95.88,0,0,0-72-.84l-.36-.93a96.85,96.85,0,0,1,72.79.85Z"/><path class="cls-2" d="M164.06,199.21A96.37,96.37,0,0,0,66.93,198l-.49-.87a97.38,97.38,0,0,1,98.14,1.19Z"/><path class="cls-2" d="M173.45,193.14l-1-.77a95.76,95.76,0,0,0-114.84-.74l-.59-.81a97.35,97.35,0,0,1,116,.75c.34.26.68.52,1,.77Z"/><path class="cls-2" d="M189,183.19l-.61-.46a123.88,123.88,0,0,0-34.62-18.32l.32-.95A124.82,124.82,0,0,1,189,181.93l.61.46Z"/><path class="cls-2" d="M40.44,181.77l-.59-.8a124.49,124.49,0,0,1,36.51-18.46l.3,1A123.86,123.86,0,0,0,40.44,181.77Z"/><path class="cls-3" d="M116.45,211.93a96.58,96.58,0,0,1-58.52-19.56A95.63,95.63,0,0,0,0,173v-1a96.61,96.61,0,0,1,58.52,19.55,96.75,96.75,0,0,0,115.84,0A96.76,96.76,0,0,1,230.92,172l0,1a95.74,95.74,0,0,0-56,19.33A96.56,96.56,0,0,1,116.45,211.93Z"/><path class="cls-3" d="M116.45,224.39a96.58,96.58,0,0,1-58.52-19.56A95.63,95.63,0,0,0,0,185.48v-1A96.61,96.61,0,0,1,58.53,204a96.75,96.75,0,0,0,115.84,0,96.76,96.76,0,0,1,56.55-19.53l0,1a95.74,95.74,0,0,0-56,19.33A96.56,96.56,0,0,1,116.45,224.39Z"/><path class="cls-3" d="M116.45,236.85a96.58,96.58,0,0,1-58.52-19.56A95.63,95.63,0,0,0,0,197.94v-1a96.61,96.61,0,0,1,58.52,19.55,96.75,96.75,0,0,0,115.84,0A96.76,96.76,0,0,1,230.92,197l0,1a95.74,95.74,0,0,0-56,19.33A96.56,96.56,0,0,1,116.45,236.85Z"/><path class="cls-3" d="M116.45,249.31a96.58,96.58,0,0,1-58.52-19.56A95.63,95.63,0,0,0,0,210.4v-1A96.61,96.61,0,0,1,58.53,229a96.75,96.75,0,0,0,115.84,0,96.76,96.76,0,0,1,56.55-19.53l0,1a95.74,95.74,0,0,0-56,19.33A96.56,96.56,0,0,1,116.45,249.31Z"/><path class="cls-3" d="M116.45,261.77a96.58,96.58,0,0,1-58.52-19.56A95.63,95.63,0,0,0,0,222.86v-1a96.61,96.61,0,0,1,58.52,19.55,96.75,96.75,0,0,0,115.84,0,96.76,96.76,0,0,1,56.55-19.53l0,1a95.74,95.74,0,0,0-56,19.33A96.56,96.56,0,0,1,116.45,261.77Z"/><path class="cls-2" d="M230.93,172a96.67,96.67,0,0,1-57.48-18.79l.59-.81A95.64,95.64,0,0,0,230.93,171Z"/><path class="cls-2" d="M0,172l0-1a95.82,95.82,0,0,0,56-19.34l1-.74.59.81c-.33.24-.66.48-1,.73A96.84,96.84,0,0,1,0,172Z"/><path class="cls-2" d="M230.93,159.56a97.35,97.35,0,0,1-48.45-12.92l.5-.86a96.38,96.38,0,0,0,48,12.78Z"/><path class="cls-2" d="M0,159.54l0-1A96.48,96.48,0,0,0,47.67,144.8l.51.85A97.42,97.42,0,0,1,0,159.54Z"/><path class="cls-2" d="M230.93,147.1a97,97,0,0,1-35.35-6.64l.37-.93a95.89,95.89,0,0,0,35,6.57Z"/><path class="cls-2" d="M0,147.08l0-1a96.15,96.15,0,0,0,35.07-7.37l.38.92A97,97,0,0,1,0,147.08Z"/><path class="cls-2" d="M230.93,134.64a99.34,99.34,0,0,1-11.82-.72l.12-1a97.33,97.33,0,0,0,11.7.71Z"/><path class="cls-2" d="M127.15,96.55A96.78,96.78,0,0,0,103,96.4l-.12-1a97.35,97.35,0,0,1,24.36.15Z"/><path class="cls-2" d="M0,134.62l0-1a97.69,97.69,0,0,0,11.07-.87l.13,1A97.17,97.17,0,0,1,0,134.62Z"/><path class="cls-2" d="M151.54,90.66a95.88,95.88,0,0,0-72-.83l-.36-.93a96.81,96.81,0,0,1,72.79.84Z"/><path class="cls-2" d="M164.06,84.53a96.4,96.4,0,0,0-97.13-1.18l-.49-.87a97.41,97.41,0,0,1,98.14,1.19Z"/><path class="cls-2" d="M173.45,78.47l-1-.77A95.75,95.75,0,0,0,57.57,77l-.59-.8a97.31,97.31,0,0,1,116,.75l1,.76Z"/><path class="cls-2" d="M189,68.52l-.61-.46A123.91,123.91,0,0,0,153.8,49.73l.32-.95A124.85,124.85,0,0,1,189,67.26l.61.45Z"/><path class="cls-2" d="M40.44,67.1l-.59-.81A125,125,0,0,1,76.36,47.83l.3,1A123.88,123.88,0,0,0,40.44,67.1Z"/><path class="cls-3" d="M116.45,97.26A96.64,96.64,0,0,1,57.93,77.7,95.57,95.57,0,0,0,0,58.34v-1A96.56,96.56,0,0,1,58.53,76.9a96.78,96.78,0,0,0,115.84,0,96.7,96.7,0,0,1,56.55-19.54l0,1A95.75,95.75,0,0,0,175,77.7,96.62,96.62,0,0,1,116.45,97.26Z"/><path class="cls-3" d="M116.45,109.72A96.64,96.64,0,0,1,57.93,90.16,95.57,95.57,0,0,0,0,70.8v-1A96.56,96.56,0,0,1,58.53,89.36a96.78,96.78,0,0,0,115.84,0,96.7,96.7,0,0,1,56.55-19.54l0,1a95.75,95.75,0,0,0-56,19.34A96.62,96.62,0,0,1,116.45,109.72Z"/><path class="cls-3" d="M116.45,122.18a96.64,96.64,0,0,1-58.52-19.56A95.57,95.57,0,0,0,0,83.26v-1a96.56,96.56,0,0,1,58.52,19.56,96.78,96.78,0,0,0,115.84,0,96.7,96.7,0,0,1,56.55-19.54l0,1a95.75,95.75,0,0,0-56,19.34A96.62,96.62,0,0,1,116.45,122.18Z"/><path class="cls-3" d="M116.45,134.64a96.64,96.64,0,0,1-58.52-19.56A95.57,95.57,0,0,0,0,95.72v-1a96.56,96.56,0,0,1,58.52,19.56,96.78,96.78,0,0,0,115.84,0,96.7,96.7,0,0,1,56.55-19.54l0,1a95.75,95.75,0,0,0-56,19.34A96.62,96.62,0,0,1,116.45,134.64Z"/><path class="cls-3" d="M116.45,147.1a96.64,96.64,0,0,1-58.52-19.56A95.57,95.57,0,0,0,0,108.18v-1a96.56,96.56,0,0,1,58.52,19.56,96.78,96.78,0,0,0,115.84,0,96.7,96.7,0,0,1,56.55-19.54l0,1a95.75,95.75,0,0,0-56,19.34A96.62,96.62,0,0,1,116.45,147.1Z"/><path class="cls-3" d="M116.45,159.56A96.64,96.64,0,0,1,57.93,140,95.57,95.57,0,0,0,0,120.64v-1A96.56,96.56,0,0,1,58.53,139.2a96.78,96.78,0,0,0,115.84,0,96.7,96.7,0,0,1,56.55-19.54l0,1A95.75,95.75,0,0,0,175,140,96.62,96.62,0,0,1,116.45,159.56Z"/><path class="cls-3" d="M116.45,172a96.64,96.64,0,0,1-58.52-19.56A95.57,95.57,0,0,0,0,133.1v-1a96.56,96.56,0,0,1,58.52,19.56,96.78,96.78,0,0,0,115.84,0,96.7,96.7,0,0,1,56.55-19.54l0,1a95.75,95.75,0,0,0-56,19.34A96.62,96.62,0,0,1,116.45,172Z"/><path class="cls-2" d="M230.93,57.34a96.67,96.67,0,0,1-57.48-18.79l.59-.81a95.64,95.64,0,0,0,56.89,18.6Z"/><path class="cls-2" d="M0,57.32l0-1A95.75,95.75,0,0,0,56,37l1-.74.59.81c-.33.24-.66.48-1,.73A96.77,96.77,0,0,1,0,57.32Z"/><path class="cls-2" d="M230.93,44.88A97.44,97.44,0,0,1,182.48,32l.5-.87a96.38,96.38,0,0,0,48,12.78Z"/><path class="cls-2" d="M0,44.86l0-1A96.38,96.38,0,0,0,47.67,30.12l.51.86A97.41,97.41,0,0,1,0,44.86Z"/><path class="cls-2" d="M230.93,32.42a96.82,96.82,0,0,1-35.35-6.64l.37-.93a95.89,95.89,0,0,0,35,6.57Z"/><path class="cls-2" d="M0,32.4l0-1A96.15,96.15,0,0,0,35.07,24l.38.92A96.79,96.79,0,0,1,0,32.4Z"/><path class="cls-2" d="M230.93,20a97.28,97.28,0,0,1-11.82-.72l.12-1a97.33,97.33,0,0,0,11.7.71Z"/><path class="cls-2" d="M0,19.94l0-1a100,100,0,0,0,11.07-.86l.13,1A99.45,99.45,0,0,1,0,19.94Z"/><path class="cls-3" d="M116.45,7.5A96.58,96.58,0,0,1,57.93-12.06,95.57,95.57,0,0,0,0-31.42v-1A96.56,96.56,0,0,1,58.53-12.86a96.78,96.78,0,0,0,115.84,0A96.77,96.77,0,0,1,230.92-32.4l0,1a95.75,95.75,0,0,0-56,19.34A96.56,96.56,0,0,1,116.45,7.5Z"/><path class="cls-3" d="M116.45,20A96.58,96.58,0,0,1,57.93.4,95.57,95.57,0,0,0,0-19v-1A96.56,96.56,0,0,1,58.53-.4a96.78,96.78,0,0,0,115.84,0,96.77,96.77,0,0,1,56.55-19.54l0,1A95.75,95.75,0,0,0,175,.4,96.56,96.56,0,0,1,116.45,20Z"/><path class="cls-3" d="M116.45,32.42A96.58,96.58,0,0,1,57.93,12.86,95.57,95.57,0,0,0,0-6.5v-1A96.56,96.56,0,0,1,58.53,12.06a96.78,96.78,0,0,0,115.84,0A96.77,96.77,0,0,1,230.92-7.48l0,1a95.75,95.75,0,0,0-56,19.34A96.56,96.56,0,0,1,116.45,32.42Z"/><path class="cls-3" d="M116.45,44.88A96.58,96.58,0,0,1,57.93,25.32,95.57,95.57,0,0,0,0,6V5A96.56,96.56,0,0,1,58.53,24.52a96.78,96.78,0,0,0,115.84,0A96.77,96.77,0,0,1,230.92,5l0,1a95.75,95.75,0,0,0-56,19.34A96.56,96.56,0,0,1,116.45,44.88Z"/><path class="cls-3" d="M116.45,57.34A96.58,96.58,0,0,1,57.93,37.78,95.57,95.57,0,0,0,0,18.42v-1A96.56,96.56,0,0,1,58.53,37a96.78,96.78,0,0,0,115.84,0,96.77,96.77,0,0,1,56.55-19.54l0,1a95.75,95.75,0,0,0-56,19.34A96.56,96.56,0,0,1,116.45,57.34Z"/></pattern></defs><g class="cls-4"><rect class="cls-5" width="2160" height="1080"/><rect class="cls-6" width="2160" height="1080"/></g></svg>